<?xml version="1.0" encoding="iso-8859-1"?>
<!-- Generator: Adobe Illustrator 16.0.0, SVG Export Plug-In . SVG Version: 6.00 Build 0)  -->
<!DOCTYPE svg PUBLIC "-//W3C//DTD SVG 1.1//EN" "http://www.w3.org/Graphics/SVG/1.1/DTD/svg11.dtd">
<svg version="1.1" id="Capa_1" xmlns="http://www.w3.org/2000/svg" xmlns:xlink="http://www.w3.org/1999/xlink" x="0px" y="0px"
	 width="496.285px" height="496.285px" viewBox="0 0 496.285 496.285" style="enable-background:new 0 0 496.285 496.285;"
	 xml:space="preserve">
<g>
	<g>
		<path d="M491.838,134.984c2.822-3.452,4.447-7.793,4.447-12.574c0-10.959-8.836-19.852-19.852-19.852
			c-4.857,0-9.305,1.731-12.699,4.667l-48.988,48.874l-59.144-59.096c-4.505-4.322-10.558-7.095-17.376-7.095l-92.708,0.057
			c-5.958,0-11.265,2.716-14.841,6.933l-63.992,73.746c-3.978,3.519-6.464,8.654-6.464,14.43c0,10.557,8.558,19.144,19.221,19.144
			c5.948,0,11.303-2.649,14.831-6.971l59.374-68.621l34.215,0.182L157.046,280.459l-88.463-0.229
			c-2.018-0.058-4.093,0.124-6.234,0.573c-13.263,2.945-21.516,15.979-18.465,29.262c2.601,11.656,13.043,19.498,24.528,19.335
			l102.816-0.182c21.755,0.756,30.017-9.352,30.017-9.352l50.72-56.553l58.914,57.299l-23.887,106.344
			c-0.574,1.961-0.812,4.055-0.812,6.235c0,13.617,11.083,24.69,24.699,24.69c11.887,0,21.87-8.482,24.165-19.718l29.089-129.678
			c6.234-20.187-4.657-30.352-4.657-30.352l-51.943-51.867l56.658-65.503l36.241,36.414c0,0,14.431,15.176,32.312-2.706
			L491.838,134.984z"/>
		<path d="M61.402,376.677c2.419,0,4.8-0.439,7.095-1.339l17.796-7c4.915-1.932,7.334-7.487,5.403-12.402
			c-1.941-4.915-7.478-7.315-12.403-5.393l-17.795,6.999c-2.161,0.822-12.623-5.967-19.402-23.198l-23.629-60.062
			c-1.922-4.915-7.478-7.324-12.403-5.393c-4.915,1.932-7.334,7.487-5.393,12.402l23.629,60.062
			C32.771,362.897,47.756,376.677,61.402,376.677z"/>
		<path d="M382.129,440.535c0-5.288-4.284-9.562-9.562-9.562c-5.279,0-9.562,4.274-9.562,9.562v19.125
			c0,2.381-10.175,9.562-28.688,9.562h-64.548c-5.278,0-9.562,4.274-9.562,9.562s4.284,9.562,9.562,9.562h64.548
			c27.263,0,47.812-12.336,47.812-28.688V440.535z"/>
		<path d="M400.097,100.225c25.465,0,46.101-20.712,46.101-46.168c0-25.475-20.636-46.12-46.101-46.12
			c-25.475,0-46.178,20.645-46.178,46.12C353.919,79.513,374.622,100.225,400.097,100.225z"/>
	</g>
</g>
<g>
</g>
<g>
</g>
<g>
</g>
<g>
</g>
<g>
</g>
<g>
</g>
<g>
</g>
<g>
</g>
<g>
</g>
<g>
</g>
<g>
</g>
<g>
</g>
<g>
</g>
<g>
</g>
<g>
</g>
</svg>
