<?xml version="1.0" encoding="iso-8859-1"?>
<!-- Generator: Adobe Illustrator 19.0.0, SVG Export Plug-In . SVG Version: 6.00 Build 0)  -->
<svg version="1.1" id="Layer_1" xmlns="http://www.w3.org/2000/svg" xmlns:xlink="http://www.w3.org/1999/xlink" x="0px" y="0px"
	 viewBox="0 0 512 512" style="enable-background:new 0 0 512 512;" xml:space="preserve">
<g>
	<g>
		<path d="M488.615,403.141c4.157-7.607,6.524-16.325,6.524-25.588v-17.345c1.043-4.164,1.604-8.518,1.604-13.001
			c0-17.82-6.344-39.05-24.152-45.192c-101.053-34.85-217.046-99.812-217.046-294.429V0h-20.282
			c-24.042,0-38.164,10.816-52.254,28.488H86.32c-7.697,0-15.118,3.232-20.36,8.868c-5.249,5.643-7.94,13.289-7.382,20.98
			c2.316,31.992,4.754,90.391-4.943,122.071l-0.13,0.419l-0.08,0.452c-0.717,3.412-8.906,17.13-16.102,27.802l-0.215,0.338
			c-14.801,24.669-20.839,44.489-20.839,68.413c0,11.019,3.707,21.421,10.115,29.786v87.113l98.119,13.097V385.24l107.169,33.306
			c23.724,8.317,48.498,12.533,73.639,12.533h136.307c14.553,0,27.759-5.846,37.418-15.302c9.845,2.712,16.699,11.682,16.699,21.932
			v28.323c0,13.446-11.037,30.796-22.759,30.796H16.267v-23.265h28.829c15.339,0,27.817-12.478,27.817-27.817v-34.392H57.74v34.392
			c0,6.972-5.672,12.644-12.644,12.644H1.094V512h471.88c10.226,0,20.02-5.687,27.579-16.012
			c6.483-8.855,10.353-20.055,10.353-29.958v-28.323C510.906,422.624,502.001,409.191,488.615,403.141z M441.616,415.904H305.308
			c-23.471,0-46.598-3.944-68.743-11.722l-110.841-34.452c-3.824-1.187-8.028-0.48-11.25,1.893
			c-3.223,2.373-5.147,6.179-5.147,10.181v8.687l-67.773-9.046V320.69c2.364,1.308,4.853,2.437,7.461,3.352l182.521,64.109
			c23.764,8.346,48.585,12.579,73.771,12.579H443.22c13.618,0,26.058-5.12,35.515-13.527
			C474.444,403.695,459.43,415.904,441.616,415.904z M443.22,385.559H305.308c-23.471,0-46.598-3.944-68.743-11.722L54.045,309.728
			c-13.52-4.749-22.605-17.567-22.605-31.898c0-20.885,5.383-38.408,18.574-60.437c5.035-7.474,16.431-24.979,18.229-32.877
			c10.303-34.098,7.853-94.335,5.468-127.277c-0.257-3.552,0.936-6.944,3.358-9.55c2.417-2.598,5.702-4.029,9.25-4.029h104.133
			l2.277-2.971c12.976-16.924,23.117-25.517,42.534-25.517h5.168c0.716,45.958,7.975,87.505,21.603,123.602
			c12.721,33.693,31.362,63.597,55.403,88.88c46.277,48.667,104.582,72.969,150.207,88.704
			c10.279,3.544,13.927,18.834,13.927,30.848C481.572,368.354,464.367,385.559,443.22,385.559z"/>
	</g>
</g>
<g>
	<g>
		<path d="M313.657,445.745c0,6.972-5.672,12.644-12.644,12.644h-185.11c-6.973,0-12.644-5.672-12.644-12.644v-28.323H88.086v28.323
			c0,15.339,12.478,27.817,27.817,27.817h185.11c15.339,0,27.817-12.478,27.817-27.817H313.657z"/>
	</g>
</g>
<g>
	<g>
		<path d="M445.156,445.745c0,6.972-5.672,12.644-12.644,12.644H371.82c-6.973,0-12.644-5.672-12.644-12.644h-15.173
			c0,15.339,12.478,27.817,27.817,27.817h60.692c15.339,0,27.817-12.478,27.817-27.817H445.156z"/>
	</g>
</g>
<g>
	<g>
		<path d="M114.806,275.934c-1.237,9.039-4.339,17.539-9.219,25.264l12.827,8.105c6.048-9.572,9.892-20.108,11.424-31.314
			L114.806,275.934z"/>
	</g>
</g>
<g>
	<g>
		<path d="M84.688,195.532l-6.355,13.777c8.161,3.766,15.6,9.362,21.514,16.182l11.465-9.938
			C103.997,207.116,94.79,200.192,84.688,195.532z"/>
	</g>
</g>
<g>
	<g>
		<path d="M120.882,229.301L107.58,236.6c4.386,7.994,6.956,16.67,7.637,25.785l15.13-1.13
			C129.505,249.962,126.32,239.211,120.882,229.301z"/>
	</g>
</g>
<g>
	<g>
		<path d="M339.239,267.436l-8.711,12.423c4.209,2.952,8.565,5.851,12.948,8.618l8.099-12.83
			C347.398,273.01,343.248,270.248,339.239,267.436z"/>
	</g>
</g>
<g>
	<g>
		<path d="M315.887,249.254l-9.92,11.482c3.896,3.367,7.949,6.689,12.043,9.876l9.319-11.974
			C323.438,255.609,319.589,252.452,315.887,249.254z"/>
	</g>
</g>
<g>
	<g>
		<path d="M294.588,228.789l-11.085,10.36c3.518,3.764,7.199,7.494,10.941,11.088l10.511-10.943
			C301.408,235.889,297.92,232.355,294.588,228.789z"/>
	</g>
</g>
<g>
	<g>
		<path d="M364.299,283.267l-7.49,13.195c4.465,2.535,9.068,5.01,13.681,7.358l6.881-13.523
			C372.962,288.055,368.564,285.689,364.299,283.267z"/>
	</g>
</g>
<g>
	<g>
		<path d="M390.755,296.738l-6.274,13.814c4.674,2.123,9.471,4.177,14.258,6.106l5.67-14.075
			C399.825,300.738,395.231,298.77,390.755,296.738z"/>
	</g>
</g>
<g>
	<g>
		<path d="M275.674,206.174l-12.162,9.071c3.088,4.14,6.339,8.256,9.665,12.231l11.638-9.735
			C281.671,213.982,278.595,210.09,275.674,206.174z"/>
	</g>
</g>
<g>
	<g>
		<path d="M223.636,69.933l-15.084,1.644c0.562,5.156,1.248,10.332,2.037,15.381l14.991-2.343
			C224.827,79.797,224.172,74.856,223.636,69.933z"/>
	</g>
</g>
<g>
	<g>
		<path d="M221.719,40.33l-15.169,0.338c0.115,5.184,0.34,10.388,0.668,15.468l15.141-0.976
			C222.045,50.291,221.829,45.301,221.719,40.33z"/>
	</g>
</g>
<g>
	<g>
		<path d="M228.216,99.172l-14.859,3.067c1.048,5.082,2.233,10.176,3.523,15.142l14.686-3.813
			C230.341,108.846,229.214,104.004,228.216,99.172z"/>
	</g>
</g>
<g>
	<g>
		<path d="M235.648,127.757l-14.467,4.576c1.566,4.947,3.278,9.898,5.092,14.714l14.2-5.346
			C238.754,137.138,237.132,132.447,235.648,127.757z"/>
	</g>
</g>
<g>
	<g>
		<path d="M259.424,181.602l-13.108,7.641c2.607,4.474,5.376,8.931,8.231,13.245l12.655-8.37
			C264.505,190.042,261.889,185.832,259.424,181.602z"/>
	</g>
</g>
<g>
	<g>
		<path d="M246.045,155.351l-13.883,6.122c2.092,4.744,4.341,9.481,6.684,14.082l13.519-6.888
			C250.15,164.317,248.024,159.837,246.045,155.351z"/>
	</g>
</g>
<g>
</g>
<g>
</g>
<g>
</g>
<g>
</g>
<g>
</g>
<g>
</g>
<g>
</g>
<g>
</g>
<g>
</g>
<g>
</g>
<g>
</g>
<g>
</g>
<g>
</g>
<g>
</g>
<g>
</g>
</svg>
