<?xml version="1.0" encoding="iso-8859-1"?>
<!-- Generator: Adobe Illustrator 16.0.0, SVG Export Plug-In . SVG Version: 6.00 Build 0)  -->
<!DOCTYPE svg PUBLIC "-//W3C//DTD SVG 1.1//EN" "http://www.w3.org/Graphics/SVG/1.1/DTD/svg11.dtd">
<svg version="1.1" id="Capa_1" xmlns="http://www.w3.org/2000/svg" xmlns:xlink="http://www.w3.org/1999/xlink" x="0px" y="0px"
	 width="172.804px" height="172.804px" viewBox="0 0 172.804 172.804" style="enable-background:new 0 0 172.804 172.804;"
	 xml:space="preserve">
<g>
	<g>
		<path d="M125.08,107.564c13.731-11.398,22.11-28.445,22.11-46.771C147.19,27.273,119.917,0,86.396,0S25.602,27.273,25.602,60.794
			c0,18.319,8.388,35.372,22.116,46.771L19.05,157.216l22.064-7.039l4.938,22.627l33.53-58.072c2.238,0.28,4.506,0.475,6.82,0.475
			c2.319,0,4.582-0.194,6.823-0.475l33.529,58.072l4.933-22.627l22.066,7.039L125.08,107.564z M48.984,60.794
			c0-20.657,16.754-37.412,37.412-37.412c20.655,0,37.412,16.755,37.412,37.412s-16.757,37.412-37.412,37.412
			C65.739,98.206,48.984,81.457,48.984,60.794z M140.809,60.794c0-30.05-24.356-54.416-54.413-54.416
			c-30.053,0-54.416,24.36-54.416,54.416c0,16.483,7.365,31.231,18.943,41.211l-1.641,2.85C36.496,94.04,28.72,77.989,28.72,60.8
			c0-31.807,25.87-57.676,57.676-57.676c31.81,0,57.676,25.87,57.676,57.676c0,17.208-7.77,33.253-20.557,44.055l-1.645-2.85
			C133.447,92.019,140.809,77.277,140.809,60.794z"/>
		<polygon points="112.993,54.826 94.616,52.15 86.396,35.496 78.173,52.15 59.795,54.826 73.091,67.781 69.958,86.088 
			86.396,77.454 102.837,86.088 99.701,67.781 		"/>
	</g>
</g>
<g>
</g>
<g>
</g>
<g>
</g>
<g>
</g>
<g>
</g>
<g>
</g>
<g>
</g>
<g>
</g>
<g>
</g>
<g>
</g>
<g>
</g>
<g>
</g>
<g>
</g>
<g>
</g>
<g>
</g>
</svg>
